<?xml version="1.0" encoding="utf-8"?>
<!-- Generator: Adobe Illustrator 16.0.0, SVG Export Plug-In . SVG Version: 6.00 Build 0)  -->
<!DOCTYPE svg PUBLIC "-//W3C//DTD SVG 1.1//EN" "http://www.w3.org/Graphics/SVG/1.1/DTD/svg11.dtd">
<svg version="1.1" id="Layer_1" xmlns="http://www.w3.org/2000/svg" xmlns:xlink="http://www.w3.org/1999/xlink" x="0px" y="0px"
	 width="1980px" height="1508px" viewBox="0 0 1980 1508" enable-background="new 0 0 1980 1508" xml:space="preserve">
<g>
	<path fill="none" d="M1607.386,492.411H104.302v847.135v0.034h1503.084h0.034v-0.034V492.411H1607.386z M742.557,925.016h72.04
		v25.266h-72.04V925.016z M594.38,883.389h72.04v25.265h-72.04V883.389z M725.276,925.016v25.266H315.567v-25.266H725.276z
		 M577.117,908.651L577.117,908.651h-261.55v-25.28h261.55V908.651z M225.78,584.617h72.041v25.264H225.78V584.617z M225.78,627.16
		h179.557v25.281H225.78V627.16z M225.78,669.721h239.415v25.266H225.78V669.721z M225.78,712.265h179.557v25.28H225.78V712.265z
		 M225.78,754.825h179.557v25.263H225.78V754.825z M225.78,797.368h72.041v25.281H225.78V797.368z M225.78,839.912H346.22v25.263
		H225.78V839.912z M225.78,883.371h72.041v25.28H225.78V883.371z M225.78,925.016h72.041v25.266H225.78V925.016z M225.78,967.559
		h72.041v25.281H225.78V967.559z M225.78,1010.12h573.938v25.263H225.78V1010.12z M225.78,1052.663h72.041v25.28H225.78V1052.663z
		 M225.78,1095.224H577.1v25.28H225.78V1095.224z M186.659,584.617L186.659,584.617H208.5v25.264h-21.825h-0.017L186.659,584.617
		L186.659,584.617z M208.518,1248.135L208.518,1248.135h-21.842h-0.017v-25.281h0.017H208.5h0.017L208.518,1248.135
		L208.518,1248.135z M208.518,1205.591L208.518,1205.591h-21.842h-0.017v-25.246h0.017H208.5h0.017L208.518,1205.591
		L208.518,1205.591z M208.518,1163.064L208.518,1163.064h-21.842h-0.017v-25.3h0.017H208.5h0.017L208.518,1163.064L208.518,1163.064
		z M208.518,1120.504L208.518,1120.504h-21.842h-0.017v-25.28h0.017H208.5h0.017L208.518,1120.504L208.518,1120.504z
		 M208.518,1077.943L208.518,1077.943h-21.842h-0.017v-25.28h0.017H208.5h0.017L208.518,1077.943L208.518,1077.943z
		 M208.518,1035.383L208.518,1035.383h-21.842h-0.017v-25.263h0.017H208.5h0.017L208.518,1035.383L208.518,1035.383z
		 M208.518,992.84L208.518,992.84h-21.842h-0.017v-25.281h0.017H208.5h0.017L208.518,992.84L208.518,992.84z M208.518,950.279
		L208.518,950.279h-21.842h-0.017v-25.266h0.017H208.5h0.017L208.518,950.279L208.518,950.279z M208.518,907.735L208.518,907.735
		h-21.842h-0.017v-25.28h0.017H208.5h0.017L208.518,907.735L208.518,907.735z M208.518,865.175L208.518,865.175h-21.842h-0.017
		v-25.263h0.017H208.5h0.017L208.518,865.175L208.518,865.175z M208.518,822.649h-21.842v-0.02h-0.017v-25.28H208.5v0.02h0.017
		L208.518,822.649L208.518,822.649z M208.518,780.088L208.518,780.088h-21.842h-0.017v-25.263h0.017H208.5h0.017L208.518,780.088
		L208.518,780.088z M208.518,737.545L208.518,737.545h-21.842h-0.017v-25.28h0.017H208.5h0.017L208.518,737.545L208.518,737.545z
		 M208.518,694.984L208.518,694.984h-21.842h-0.017V669.72h0.017H208.5h0.017L208.518,694.984L208.518,694.984z M208.518,652.441
		L208.518,652.441h-21.842h-0.017V627.16h0.017H208.5h0.017L208.518,652.441L208.518,652.441z M346.222,1248.135H225.78v-25.281
		H346.22L346.222,1248.135L346.222,1248.135z M373.109,1205.591L373.109,1205.591H225.798h-0.018v-25.246h0.018h147.295h0.019
		L373.109,1205.591L373.109,1205.591z M520.422,1163.064H225.78v-25.3h294.642V1163.064z M610.951,1163.064L610.951,1163.064h-72.04
		h-0.017v-25.28h0.017h72.021h0.019V1163.064L610.951,1163.064z M799.735,1077.943L799.735,1077.943H315.567v-25.28h484.149h0.019
		V1077.943L799.735,1077.943z M888.866,992.84H315.567v-25.281h573.298L888.866,992.84L888.866,992.84z M978.169,992.84h-72.022
		v-25.281h72.022V992.84z"/>
	<circle fill="none" cx="855.844" cy="1474.485" r="31.916"/>
	<polygon fill="#CCCCCC" points="208.5,797.352 186.659,797.352 186.659,822.632 186.676,822.632 186.676,822.649 208.518,822.649 
		208.518,797.368 208.5,797.368 	"/>
	<polygon fill="#CCCCCC" points="538.911,1137.784 538.895,1137.784 538.895,1163.064 538.911,1163.064 610.936,1163.064 
		610.951,1163.064 610.951,1137.784 610.936,1137.784 	"/>
	<rect x="742.557" y="925.016" fill="#CCCCCC" width="72.04" height="25.266"/>
	<rect x="594.38" y="883.389" fill="#CCCCCC" width="72.04" height="25.265"/>
	<rect x="225.78" y="584.617" fill="#CCCCCC" width="72.041" height="25.264"/>
	<rect x="225.78" y="797.368" fill="#CCCCCC" width="72.041" height="25.281"/>
	<rect x="225.78" y="883.371" fill="#CCCCCC" width="72.041" height="25.28"/>
	<rect x="225.78" y="925.016" fill="#CCCCCC" width="72.041" height="25.266"/>
	<rect x="225.78" y="839.912" fill="#CCCCCC" width="120.439" height="25.263"/>
	<polygon fill="#CCCCCC" points="315.567,908.651 577.1,908.651 577.117,908.651 577.117,883.371 315.567,883.371 	"/>
	<rect x="315.567" y="925.016" fill="#CCCCCC" width="409.709" height="25.266"/>
	<rect x="225.78" y="967.559" fill="#CCCCCC" width="72.041" height="25.281"/>
	<rect x="225.78" y="1052.663" fill="#CCCCCC" width="72.041" height="25.28"/>
	<rect x="906.146" y="967.559" fill="#CCCCCC" width="72.021" height="25.281"/>
	<rect x="315.567" y="967.559" fill="#CCCCCC" width="573.298" height="25.281"/>
	<rect x="225.78" y="1010.12" fill="#CCCCCC" width="573.938" height="25.263"/>
	<polygon fill="#CCCCCC" points="315.567,1052.663 315.567,1077.943 799.719,1077.943 799.735,1077.943 799.735,1052.663 
		799.719,1052.663 	"/>
	<rect x="225.78" y="1095.224" fill="#CCCCCC" width="351.317" height="25.28"/>
	<rect x="225.78" y="1137.767" fill="#CCCCCC" width="294.642" height="25.301"/>
	<polygon fill="#CCCCCC" points="225.798,1180.345 225.78,1180.345 225.78,1205.591 225.798,1205.591 373.093,1205.591 
		373.109,1205.591 373.109,1180.345 373.093,1180.345 	"/>
	<rect x="225.78" y="1222.871" fill="#CCCCCC" width="120.439" height="25.28"/>
	<rect x="225.78" y="627.16" fill="#CCCCCC" width="179.557" height="25.281"/>
	<rect x="225.78" y="669.721" fill="#CCCCCC" width="239.415" height="25.266"/>
	<rect x="225.78" y="712.265" fill="#CCCCCC" width="179.557" height="25.28"/>
	<rect x="225.78" y="754.825" fill="#CCCCCC" width="179.557" height="25.263"/>
	<polygon fill="#CCCCCC" points="208.5,609.881 208.5,584.617 186.676,584.617 186.659,584.617 186.659,609.881 186.676,609.881 	
		"/>
	<polygon fill="#CCCCCC" points="186.676,627.16 186.659,627.16 186.659,652.441 186.676,652.441 208.5,652.441 208.518,652.441 
		208.518,627.16 208.5,627.16 	"/>
	<polygon fill="#CCCCCC" points="186.676,669.721 186.659,669.721 186.659,694.984 186.676,694.984 208.5,694.984 208.518,694.984 
		208.518,669.721 208.5,669.721 	"/>
	<polygon fill="#CCCCCC" points="186.676,712.265 186.659,712.265 186.659,737.545 186.676,737.545 208.5,737.545 208.518,737.545 
		208.518,712.265 208.5,712.265 	"/>
	<polygon fill="#CCCCCC" points="186.676,754.825 186.659,754.825 186.659,780.088 186.676,780.088 208.5,780.088 208.518,780.088 
		208.518,754.825 208.5,754.825 	"/>
	<polygon fill="#CCCCCC" points="186.676,839.912 186.659,839.912 186.659,865.175 186.676,865.175 208.5,865.175 208.518,865.175 
		208.518,839.912 208.5,839.912 	"/>
	<polygon fill="#CCCCCC" points="186.676,882.455 186.659,882.455 186.659,907.735 186.676,907.735 208.5,907.735 208.518,907.735 
		208.518,882.455 208.5,882.455 	"/>
	<polygon fill="#CCCCCC" points="186.676,925.016 186.659,925.016 186.659,950.279 186.676,950.279 208.5,950.279 208.518,950.279 
		208.518,925.016 208.5,925.016 	"/>
	<polygon fill="#CCCCCC" points="186.676,967.559 186.659,967.559 186.659,992.84 186.676,992.84 208.5,992.84 208.518,992.84 
		208.518,967.559 208.5,967.559 	"/>
	<polygon fill="#CCCCCC" points="186.676,1010.12 186.659,1010.12 186.659,1035.383 186.676,1035.383 208.5,1035.383 
		208.518,1035.383 208.518,1010.12 208.5,1010.12 	"/>
	<polygon fill="#CCCCCC" points="186.676,1052.663 186.659,1052.663 186.659,1077.943 186.676,1077.943 208.5,1077.943 
		208.518,1077.943 208.518,1052.663 208.5,1052.663 	"/>
	<polygon fill="#CCCCCC" points="186.676,1095.224 186.659,1095.224 186.659,1120.504 186.676,1120.504 208.5,1120.504 
		208.518,1120.504 208.518,1095.224 208.5,1095.224 	"/>
	<polygon fill="#CCCCCC" points="186.676,1137.767 186.659,1137.767 186.659,1163.064 186.676,1163.064 208.5,1163.064 
		208.518,1163.064 208.518,1137.767 208.5,1137.767 	"/>
	<polygon fill="#CCCCCC" points="186.676,1180.345 186.659,1180.345 186.659,1205.591 186.676,1205.591 208.5,1205.591 
		208.518,1205.591 208.518,1180.345 208.5,1180.345 	"/>
	<polygon fill="#CCCCCC" points="186.676,1222.871 186.659,1222.871 186.659,1248.135 186.676,1248.135 208.5,1248.135 
		208.518,1248.135 208.518,1222.871 208.5,1222.871 	"/>
	<path fill="#FFFFFF" d="M1627.689,426.453H869.443h-25.834H85.346c-27.008,0-50.285,20.546-50.285,47.555v934.71v3.268v86.605
		v5.427c0,27.01,23.276,49.715,50.285,49.715h607.323c-0.709,15.481-5.547,82.133-37.238,114.444
		c-24.97,25.453-59.668,49.317-46.12,61.568c3.283,7.534,18.854,11.889,54.261,11.889c78.123,0,162.708,0,193.674,0
		c7.828,0,12.218,0,12.218,0c30.965,0,115.568,0,193.674,0c40.332,0,54.415-6.601,54.57-16.468h-1.383v-3.248h-1.417
		c-1.797-13.307-28.72-32.953-49.075-53.655c-31.691-32.312-36.513-98.962-37.221-114.444h599.165
		c27.011,0,48.887-22.688,48.887-49.715v-5.427v-86.605v-3.268V474.042C1676.627,446.999,1654.732,426.453,1627.689,426.453z
		 M855.844,1506.401c-17.643,0-31.916-14.238-31.916-31.899c0-17.66,14.273-31.933,31.916-31.933
		c17.626,0,31.916,14.271,31.916,31.933C887.777,1492.162,873.47,1506.401,855.844,1506.401z M1607.438,1339.546h-0.035v0.034
		h-0.017H104.302v-0.034V492.411h1503.084h0.034h0.035v847.135H1607.438z"/>
	<rect x="1607.402" y="492.411" fill="#CCCCCC" width="0.035" height="847.117"/>
</g>
</svg>
