<?xml version="1.0" encoding="utf-8"?>
<!-- Generator: Adobe Illustrator 16.0.0, SVG Export Plug-In . SVG Version: 6.00 Build 0)  -->
<!DOCTYPE svg PUBLIC "-//W3C//DTD SVG 1.1//EN" "http://www.w3.org/Graphics/SVG/1.1/DTD/svg11.dtd">
<svg version="1.1" id="Layer_1" xmlns="http://www.w3.org/2000/svg" xmlns:xlink="http://www.w3.org/1999/xlink" x="0px" y="0px"
	 width="1980px" height="1508px" viewBox="0 0 1980 1508" enable-background="new 0 0 1980 1508" xml:space="preserve">
<g>
	<path fill="none" d="M1607.386,492.411H104.302v847.135v0.034h1503.084h0.034v-0.034V492.411H1607.386z"/>
	<circle fill="none" cx="855.844" cy="1474.485" r="31.916"/>
	<path fill="#FFFFFF" d="M1627.689,426.453H869.443h-25.834H85.346c-27.008,0-50.285,20.546-50.285,47.555v934.71v3.268v86.605
		v5.427c0,27.01,23.276,49.715,50.285,49.715h607.323c-0.709,15.481-5.547,82.133-37.238,114.444
		c-24.97,25.453-59.668,49.317-46.12,61.568c3.283,7.534,18.854,11.889,54.261,11.889c78.123,0,162.708,0,193.674,0
		c7.828,0,12.218,0,12.218,0c30.965,0,115.568,0,193.674,0c40.332,0,54.415-6.601,54.57-16.468h-1.383v-3.248h-1.417
		c-1.797-13.307-28.72-32.953-49.075-53.655c-31.691-32.312-36.513-98.962-37.221-114.444h599.165
		c27.011,0,48.887-22.688,48.887-49.715v-5.427v-86.605v-3.268V474.042C1676.627,446.999,1654.732,426.453,1627.689,426.453z
		 M855.844,1506.401c-17.643,0-31.916-14.238-31.916-31.899c0-17.66,14.273-31.933,31.916-31.933
		c17.626,0,31.916,14.271,31.916,31.933C887.777,1492.162,873.47,1506.401,855.844,1506.401z M1607.438,1339.546h-0.035v0.034
		h-0.017H104.302v-0.034V492.411h1503.084h0.034h0.035v847.135H1607.438z"/>
	<rect x="1607.402" y="492.411" width="0.035" height="847.117"/>
</g>
<g>
	<path fill="#CCCCCC" d="M832.145,992.727c25.66-12.819,31.742,8.744,31.742,8.744s98.793-63.504,153.227-172.367
		c-18.146-18.145-27.217-27.217-27.217-27.217s-12.219-12.217-30.36-30.359c-108.865,54.432-170.974,154.62-170.974,154.62
		s21.98,6.479,9.144,32.142c-12.822,25.66-71.471-3.75-98.688,59.754c-22.602,52.738-52.857,128.581-52.857,128.581
		s74.27-31.83,127.008-54.432C836.688,1064.975,806.482,1005.566,832.145,992.727z M737.328,1055.471
		c-9.78-9.779-9.78-25.644,0-35.424c9.781-9.78,25.644-9.78,35.424,0c9.781,9.78,9.781,25.645,0,35.424
		C762.972,1065.27,747.109,1065.27,737.328,1055.471z"/>
</g>
<g>
	<g>
		<path fill="#CCCCCC" d="M1055.064,821.762c-8.513,0-16.516-3.312-22.531-9.331l-55.771-56.771
			c-5.972-6.01-9.259-13.981-9.259-22.459c0-8.513,3.314-16.516,9.333-22.534l0.284-0.284l453.643-415.847
			c5.979-5.802,13.838-8.992,22.188-8.992c8.514,0,16.517,3.315,22.535,9.334l18.9,18.903c6.021,6.017,9.333,14.02,9.333,22.533
			c0,8.355-3.19,16.218-9,22.196l-416.848,453.646l-0.277,0.274C1071.58,818.449,1063.577,821.762,1055.064,821.762z"/>
		<path d="M1452.952,304.043c3.422,0,6.843,1.305,9.452,3.914l18.904,18.904c5.219,5.218,5.219,13.686,0,18.904l-416.791,453.583
			c-2.609,2.609-6.031,3.914-9.452,3.914s-6.845-1.305-9.452-3.914l-55.695-56.694c-5.219-5.221-5.219-13.688,0-18.904
			L1443.5,307.957C1446.109,305.348,1449.531,304.043,1452.952,304.043 M1452.952,267.043c-13.104,0-25.444,4.97-34.866,14.018
			l-453.17,415.413l-0.593,0.543l-0.568,0.568c-19.589,19.589-19.637,51.433-0.146,71.083l55.608,56.61l0.117,0.119l0.117,0.116
			c9.513,9.512,22.16,14.747,35.61,14.747c13.452,0,26.102-5.235,35.612-14.747l0.554-0.555l0.53-0.577l416.423-453.181
			c9.062-9.425,14.038-21.775,14.038-34.889c0-13.456-5.239-26.104-14.753-35.617l-18.902-18.902
			C1479.058,272.283,1466.408,267.043,1452.952,267.043L1452.952,267.043z"/>
	</g>
</g>
</svg>
