<?xml version="1.0" encoding="utf-8"?>
<!-- Generator: Adobe Illustrator 16.0.0, SVG Export Plug-In . SVG Version: 6.00 Build 0)  -->
<!DOCTYPE svg PUBLIC "-//W3C//DTD SVG 1.1//EN" "http://www.w3.org/Graphics/SVG/1.1/DTD/svg11.dtd">
<svg version="1.1" id="Layer_1" xmlns="http://www.w3.org/2000/svg" xmlns:xlink="http://www.w3.org/1999/xlink" x="0px" y="0px"
	 width="1980px" height="1508px" viewBox="0 0 1980 1508" enable-background="new 0 0 1980 1508" xml:space="preserve">
<g>
	<path fill="none" d="M1607.386,492.411H104.302v847.135v0.034h1503.084h0.034v-0.034V492.411H1607.386z"/>
	<circle fill="none" cx="855.844" cy="1474.485" r="31.916"/>
	<path fill="#FFFFFF" d="M1627.689,426.453H869.443h-25.834H85.346c-27.008,0-50.285,20.546-50.285,47.555v934.71v3.268v86.605
		v5.427c0,27.01,23.276,49.715,50.285,49.715h607.323c-0.709,15.481-5.547,82.133-37.238,114.444
		c-24.97,25.453-59.668,49.317-46.12,61.568c3.283,7.534,18.854,11.889,54.261,11.889c78.123,0,162.708,0,193.674,0
		c7.828,0,12.218,0,12.218,0c30.965,0,115.568,0,193.674,0c40.332,0,54.415-6.601,54.57-16.468h-1.383v-3.248h-1.417
		c-1.797-13.307-28.72-32.953-49.075-53.655c-31.691-32.312-36.513-98.962-37.221-114.444h599.165
		c27.011,0,48.887-22.688,48.887-49.715v-5.427v-86.605v-3.268V474.042C1676.627,446.999,1654.732,426.453,1627.689,426.453z
		 M855.844,1506.401c-17.643,0-31.916-14.238-31.916-31.899c0-17.66,14.273-31.933,31.916-31.933
		c17.626,0,31.916,14.271,31.916,31.933C887.777,1492.162,873.47,1506.401,855.844,1506.401z M1607.438,1339.546h-0.035v0.034
		h-0.017H104.302v-0.034V492.411h1503.084h0.034h0.035v847.135H1607.438z"/>
</g>
<g>
	<rect x="954.582" y="1012.105" width="460.477" height="700.468"/>
	<g>
		<g>
			<path fill="#FFFFFF" d="M972.268,1744.52c-31.467,0-57.065-25.601-57.065-57.065V1016.99c0-31.469,25.601-57.068,57.065-57.068
				h428.545c31.469,0,57.067,25.603,57.067,57.068v670.464c0,31.467-25.601,57.065-57.067,57.065H972.268z M1188.268,1684.04
				c-6.706,0-10.322,5.319-10.322,10.324c0,6.705,5.317,10.323,10.322,10.323c5.02,0,10.324-5.309,10.324-10.323
				C1198.592,1687.658,1193.271,1684.04,1188.268,1684.04z M1393.855,1633.84v-597.8H974.04v597.8H1393.855L1393.855,1633.84z"/>
			<path d="M1400.812,963.42c29.375,0,53.565,24.192,53.565,53.568v670.464c0,29.376-24.19,53.565-53.565,53.565H972.268
				c-29.375,0-53.566-24.189-53.566-53.565v-670.464c0-29.376,24.191-53.568,53.566-53.568H1400.812 M970.54,1637.34h426.815v-604.8
				H970.54V1637.34 M1188.268,1708.188c6.912,0,13.824-6.909,13.824-13.821c0-8.643-6.912-13.824-13.824-13.824
				c-8.64,0-13.822,6.912-13.822,13.824C1174.443,1703.004,1181.355,1708.188,1188.268,1708.188 M1400.812,956.42H972.268
				c-16.078,0-31.26,6.328-42.75,17.818c-11.488,11.489-17.816,26.673-17.816,42.75v670.464c0,16.077,6.328,31.259,17.816,42.749
				c11.49,11.49,26.672,17.816,42.75,17.816h428.545c16.076,0,31.26-6.326,42.748-17.816c11.49-11.49,17.818-26.672,17.818-42.749
				v-670.464c0-16.077-6.328-31.261-17.818-42.75C1432.071,962.748,1416.891,956.42,1400.812,956.42L1400.812,956.42z
				 M977.54,1039.54h412.815v590.8H977.54V1039.54L977.54,1039.54z M1188.268,1701.188c-2.741,0-6.822-1.815-6.822-6.821
				c0-2.743,1.815-6.824,6.822-6.824c2.743,0,6.824,1.817,6.824,6.824C1195.092,1697.425,1191.329,1701.188,1188.268,1701.188
				L1188.268,1701.188z"/>
		</g>
	</g>
</g>
<rect x="1260.5" y="1222.5" width="302" height="492"/>
<g>
	<path fill="#FFFFFF" d="M1271.452,1744.52c-19.354,0-36.332-16.978-36.332-36.329v-487.298c0-19.354,16.978-36.332,36.332-36.332
		h279.937c20.032,0,36.332,16.3,36.332,36.332v487.296c0,20.032-16.3,36.332-36.332,36.332L1271.452,1744.52L1271.452,1744.52z
		 M1407.964,1687.496c-6.705,0-10.323,5.318-10.323,10.324c0,6.706,5.318,10.322,10.323,10.322c6.754,0,10.324-3.568,10.324-10.322
		S1414.718,1687.496,1407.964,1687.496z M1546.16,1651.12V1243.4h-269.48v407.72H1546.16z"/>
	<path d="M1551.388,1188.061c17.28,0,32.832,13.823,32.832,32.832v487.297c0,17.278-13.823,32.832-32.832,32.832h-279.936
		c-17.28,0-32.832-15.554-32.832-32.831v-487.298c0-17.278,15.552-32.832,32.832-32.832H1551.388 M1273.18,1654.62h276.48V1239.9
		h-276.48V1654.62 M1407.964,1711.645c8.64,0,13.824-5.185,13.824-13.822c0-8.643-5.186-13.824-13.824-13.824
		s-13.823,6.912-13.823,13.824C1394.141,1706.46,1401.052,1711.645,1407.964,1711.645 M1551.388,1181.061h-279.936
		c-21.22,0-39.832,18.613-39.832,39.832v487.298c0,21.219,18.612,39.831,39.832,39.831h279.936
		c21.964,0,39.832-17.868,39.832-39.832v-487.297C1591.22,1198.929,1573.352,1181.061,1551.388,1181.061L1551.388,1181.061z
		 M1280.18,1246.9h262.48v400.72h-262.48V1246.9L1280.18,1246.9z M1407.964,1704.645c-2.743,0-6.823-1.815-6.823-6.822
		c0-2.743,1.817-6.824,6.823-6.824c4.783,0,6.824,2.041,6.824,6.824C1414.788,1702.604,1412.747,1704.645,1407.964,1704.645
		L1407.964,1704.645z"/>
</g>
</svg>
